<?xml version="1.0" encoding="utf-8"?>
<!-- Generator: Adobe Illustrator 17.1.0, SVG Export Plug-In . SVG Version: 6.00 Build 0)  -->
<!DOCTYPE svg PUBLIC "-//W3C//DTD SVG 1.1//EN" "http://www.w3.org/Graphics/SVG/1.1/DTD/svg11.dtd">
<svg version="1.1" id="Layer_1" xmlns="http://www.w3.org/2000/svg" xmlns:xlink="http://www.w3.org/1999/xlink" x="0px" y="0px"
	 viewBox="0 0 200 200" enable-background="new 0 0 200 200" xml:space="preserve">
<path fill="#FFFFFF" d="M76.3,158.7L8.8,77.1C0.7,68,1.1,54,9.8,45.4c8.7-8.7,22.6-9.1,31.8-1l0.2,0.2l25.9,29.8l2.4,2.4
	c3.4,3.4,8.6,8.5,8.6,14.4c0,2.9-1.3,5.7-3.7,8.2c-2.8,2.8-5.7,4.2-8.8,4.2c0,0,0,0,0,0c-5.4,0-9.6-4.3-12.4-7.1l-0.3-0.3L31.6,72.4
	l2.9-2.6l22,24c2.5,2.5,5.9,5.9,9.6,5.9c0,0,0,0,0,0c2,0,4-1,6-3c1.8-1.8,2.6-3.5,2.6-5.4c0-4.3-4.5-8.7-7.4-11.6L64.8,77L38.9,47.2
	c-7.6-6.7-19.2-6.3-26.3,0.9C5.4,55.3,5,67,11.8,74.6l60.6,73.3v-31.1l42.2-42.2c6.7-7.6,6.3-19.2-0.9-26.4
	c-7.2-7.2-18.7-7.5-26.3-0.8L67.4,67.3l-2.8-2.8l20.1-20.1c9.2-8.1,23.1-7.7,31.8,0.9c8.7,8.7,9.1,22.6,1,31.8l-0.1,0.1l-41.1,41.1
	V158.7z"/>
<text transform="matrix(1 0 0 1 85.7925 138.1953)"><tspan x="0" y="0" fill="#DB4A26" font-family="'DINNeuzeitGroteskStd-Light'" font-size="25.5797" letter-spacing="2">ME</tspan><tspan x="37.2" y="0" fill="#DB4A26" font-family="'DINNeuzeitGroteskStd-Light'" font-size="25.5797" letter-spacing="1">M</tspan><tspan x="59.3" y="0" fill="#DB4A26" font-family="'DINNeuzeitGroteskStd-Light'" font-size="25.5797" letter-spacing="1">O</tspan><tspan x="78" y="0" fill="#DB4A26" font-family="'DINNeuzeitGroteskStd-Light'" font-size="25.5797" letter-spacing="2">RY</tspan><tspan x="0" y="20.2" fill="#FFFFFF" font-family="'NeutraText-BookAlt'" font-size="18.8706" letter-spacing="2">COLLECT</tspan></text>
</svg>